<?xml version="1.0" standalone="no"?>
<!DOCTYPE svg PUBLIC "-//W3C//DTD SVG 20010904//EN"
 "http://www.w3.org/TR/2001/REC-SVG-20010904/DTD/svg10.dtd">
<svg version="1.0" xmlns="http://www.w3.org/2000/svg"
 width="172.000000pt" height="172.000000pt" viewBox="0 0 172.000000 172.000000"
 preserveAspectRatio="xMidYMid meet">
<metadata>
Created by potrace 1.11, written by Peter Selinger 2001-2013
</metadata>
<g transform="translate(0.000000,172.000000) scale(0.100000,-0.100000)"
fill="#000000" stroke="none">
<path d="M765 1643 c-130 -18 -253 -76 -349 -165 -193 -176 -264 -425 -195
-682 16 -58 72 -164 116 -218 41 -50 563 -510 574 -506 10 4 438 496 472 543
82 113 120 233 120 380 0 118 -18 199 -70 305 -52 107 -170 223 -285 279 -121
60 -252 82 -383 64z m433 -568 c-9 -108 -17 -160 -25 -163 -9 -2 -13 7 -13 29
0 31 -1 32 -20 14 -13 -11 -25 -15 -37 -10 -10 5 -24 7 -30 6 -9 -1 -13 12
-13 40 l0 42 -33 -38 c-65 -75 -92 -13 -37 82 28 49 69 77 87 59 4 -3 6 -32 5
-64 l-1 -57 14 39 c20 52 33 66 61 66 23 0 24 4 24 58 0 32 3 62 7 66 19 19
22 -25 11 -169z m-528 150 c0 -15 -10 -19 -42 -16 -40 4 -94 -51 -82 -82 3
-10 28 -21 62 -28 88 -18 107 -45 52 -74 -39 -20 -120 -32 -120 -17 0 7 12 14
28 18 15 3 43 11 62 16 30 10 32 12 15 19 -11 5 -39 13 -63 19 -26 7 -48 20
-58 35 -15 23 -15 27 2 56 32 54 144 96 144 54z m138 -97 c5 -7 13 -68 17
-135 6 -109 5 -123 -9 -123 -13 0 -16 11 -17 53 -1 67 -9 89 -29 77 -27 -17
-68 -12 -75 10 -8 25 20 85 53 110 29 23 45 25 60 8z m64 -69 l-3 -74 26 28
c14 15 25 38 25 50 0 37 12 67 26 67 10 0 12 -18 7 -87 -3 -49 -8 -90 -10 -93
-3 -3 -11 3 -18 13 -8 12 -15 14 -20 8 -10 -18 -44 -12 -55 8 -19 37 -8 165
14 158 7 -2 10 -30 8 -78z m-171 -371 c-5 -131 24 -126 69 11 25 76 42 95 48
54 2 -14 8 -20 18 -16 9 3 14 -2 14 -15 0 -20 2 -21 40 -7 48 17 90 6 90 -23
0 -24 -42 -66 -96 -98 -39 -23 -42 -28 -49 -79 -4 -39 -11 -55 -21 -55 -11 0
-14 11 -11 48 3 26 3 39 0 30 -9 -37 -23 -16 -23 33 l0 52 -21 -27 c-16 -21
-28 -26 -53 -24 l-31 3 -3 89 c-3 97 1 120 21 113 9 -3 11 -27 8 -89z"/>
<path d="M1033 1089 c-17 -22 -45 -80 -40 -85 7 -7 59 76 55 88 -2 6 -8 5 -15
-3z"/>
<path d="M1136 1068 c-20 -32 -29 -85 -16 -93 11 -7 49 67 50 98 0 24 -17 21
-34 -5z"/>
<path d="M758 1093 c-36 -42 -48 -83 -23 -83 14 0 55 67 55 90 0 15 -15 12
-32 -7z"/>
<path d="M812 699 c-1 -14 -5 -48 -8 -75 -5 -37 -4 -46 5 -38 8 7 11 34 8 75
-2 35 -4 52 -5 38z"/>
<path d="M876 679 c-15 -12 -26 -30 -26 -45 l0 -25 31 18 c38 23 69 51 69 63
0 18 -47 11 -74 -11z"/>
</g>
</svg>
